{
	"asset":{
		"generator":"Khronos glTF Blender I/O v4.3.47",
		"version":"2.0"
	},
	"extensionsUsed":[
		"KHR_materials_clearcoat"
	],
	"scene":0,
	"scenes":[
		{
			"name":"Scene",
			"nodes":[
				1,
				6
			]
		}
	],
	"nodes":[
		{
			"mesh":0,
			"name":"TABLE"
		},
		{
			"children":[
				0
			],
			"name":"SANDSBERG Table"
		},
		{
			"mesh":1,
			"name":"Handles",
			"rotation":[
				-0.10843466222286224,
				0,
				0,
				0.9941036701202393
			],
			"translation":[
				0.14505749940872192,
				0.1996477246284485,
				0.017788279801607132
			]
		},
		{
			"mesh":2,
			"name":"Screen",
			"rotation":[
				0.6262625455856323,
				0,
				0,
				0.7796122431755066
			],
			"translation":[
				0,
				0.2444661259651184,
				0.012811928987503052
			]
		},
		{
			"mesh":3,
			"name":"Cutter",
			"rotation":[
				0,
				0,
				1,
				7.138470112873392e-15
			],
			"scale":[
				1,
				1,
				0.871854841709137
			],
			"translation":[
				0.14491596817970276,
				-0.01199072040617466,
				0
			]
		},
		{
			"children":[
				4
			],
			"mesh":4,
			"name":"Screen frame",
			"rotation":[
				0.6262625455856323,
				0,
				0,
				0.7796122431755066
			],
			"translation":[
				0,
				0.2444661259651184,
				0.012811928987503052
			]
		},
		{
			"children":[
				2,
				3,
				5
			],
			"name":"Modern Monitor",
			"translation":[
				0,
				0.7808399796485901,
				0
			]
		}
	],
	"materials":[
		{
			"doubleSided":true,
			"extensions":{
				"KHR_materials_clearcoat":{
					"clearcoatRoughnessFactor":0.20000000298023224
				}
			},
			"name":"Black Painted Wood",
			"normalTexture":{
				"index":0
			},
			"pbrMetallicRoughness":{
				"baseColorTexture":{
					"index":1
				},
				"metallicFactor":0,
				"metallicRoughnessTexture":{
					"index":2
				}
			}
		},
		{
			"doubleSided":true,
			"name":"BlackPlastic",
			"pbrMetallicRoughness":{
				"baseColorFactor":[
					0.005281664896756411,
					0.005281664896756411,
					0.005281664896756411,
					1
				],
				"metallicFactor":0,
				"roughnessFactor":0.30000001192092896
			}
		},
		{
			"doubleSided":true,
			"name":"Screen",
			"pbrMetallicRoughness":{
				"baseColorFactor":[
					0,
					0,
					0,
					1
				],
				"metallicFactor":0,
				"roughnessFactor":0.5
			}
		}
	],
	"meshes":[
		{
			"name":"Cube.006",
			"primitives":[
				{
					"attributes":{
						"POSITION":0,
						"NORMAL":1,
						"TEXCOORD_0":2,
						"TEXCOORD_1":3
					},
					"indices":4,
					"material":0
				}
			]
		},
		{
			"name":"Cube.002",
			"primitives":[
				{
					"attributes":{
						"POSITION":5,
						"NORMAL":6,
						"TEXCOORD_0":7
					},
					"indices":8,
					"material":1
				}
			]
		},
		{
			"name":"Plane.002",
			"primitives":[
				{
					"attributes":{
						"POSITION":9,
						"NORMAL":10,
						"TEXCOORD_0":11
					},
					"indices":12,
					"material":2
				}
			]
		},
		{
			"name":"Cutter",
			"primitives":[
				{
					"attributes":{
						"POSITION":13,
						"NORMAL":14,
						"TEXCOORD_0":15
					},
					"indices":16
				}
			]
		},
		{
			"name":"Plane",
			"primitives":[
				{
					"attributes":{
						"POSITION":17,
						"NORMAL":18,
						"TEXCOORD_0":19
					},
					"indices":20,
					"material":1
				}
			]
		}
	],
	"textures":[
		{
			"sampler":0,
			"source":0
		},
		{
			"sampler":0,
			"source":1
		},
		{
			"sampler":0,
			"source":2
		}
	],
	"images":[
		{
			"mimeType":"image/jpeg",
			"name":"Walnut_Bump",
			"uri":"Walnut_Bump.jpg"
		},
		{
			"mimeType":"image/jpeg",
			"name":"Walnut_D",
			"uri":"Walnut_D.jpg"
		},
		{
			"mimeType":"image/png",
			"name":"Walnut_R",
			"uri":"Walnut_R.png"
		}
	],
	"accessors":[
		{
			"bufferView":0,
			"componentType":5126,
			"count":3576,
			"max":[
				0.5511952042579651,
				0.7782799005508423,
				0.3371591866016388
			],
			"min":[
				-0.5511953234672546,
				0.0008222095784731209,
				-0.3371592164039612
			],
			"type":"VEC3"
		},
		{
			"bufferView":1,
			"componentType":5126,
			"count":3576,
			"type":"VEC3"
		},
		{
			"bufferView":2,
			"componentType":5126,
			"count":3576,
			"type":"VEC2"
		},
		{
			"bufferView":3,
			"componentType":5126,
			"count":3576,
			"type":"VEC2"
		},
		{
			"bufferView":4,
			"componentType":5123,
			"count":5316,
			"type":"SCALAR"
		},
		{
			"bufferView":5,
			"componentType":5126,
			"count":4202,
			"max":[
				0.005346344783902168,
				0.016245707869529724,
				0.035221293568611145
			],
			"min":[
				-0.2954614758491516,
				-0.21120086312294006,
				-0.1559843122959137
			],
			"type":"VEC3"
		},
		{
			"bufferView":6,
			"componentType":5126,
			"count":4202,
			"type":"VEC3"
		},
		{
			"bufferView":7,
			"componentType":5126,
			"count":4202,
			"type":"VEC2"
		},
		{
			"bufferView":8,
			"componentType":5123,
			"count":13914,
			"type":"SCALAR"
		},
		{
			"bufferView":9,
			"componentType":5126,
			"count":6,
			"max":[
				0.2980564534664154,
				-3.3315638575004414e-05,
				0.16718263924121857
			],
			"min":[
				-0.2980564534664154,
				-3.3322354283882305e-05,
				-0.16718263924121857
			],
			"type":"VEC3"
		},
		{
			"bufferView":10,
			"componentType":5126,
			"count":6,
			"type":"VEC3"
		},
		{
			"bufferView":11,
			"componentType":5126,
			"count":6,
			"type":"VEC2"
		},
		{
			"bufferView":12,
			"componentType":5123,
			"count":12,
			"type":"SCALAR"
		},
		{
			"bufferView":13,
			"componentType":5126,
			"count":200,
			"max":[
				0.007564798463135958,
				0.009997129440307617,
				0.08679795265197754
			],
			"min":[
				-0.007564798463135958,
				-0.0095595121383667,
				-0.08679795265197754
			],
			"type":"VEC3"
		},
		{
			"bufferView":14,
			"componentType":5126,
			"count":200,
			"type":"VEC3"
		},
		{
			"bufferView":15,
			"componentType":5126,
			"count":200,
			"type":"VEC2"
		},
		{
			"bufferView":16,
			"componentType":5123,
			"count":852,
			"type":"SCALAR"
		},
		{
			"bufferView":17,
			"componentType":5126,
			"count":3042,
			"max":[
				0.299954354763031,
				8.167819942173082e-06,
				0.1791401207447052
			],
			"min":[
				-0.299954354763031,
				-0.009990725666284561,
				-0.16934125125408173
			],
			"type":"VEC3"
		},
		{
			"bufferView":18,
			"componentType":5126,
			"count":3042,
			"type":"VEC3"
		},
		{
			"bufferView":19,
			"componentType":5126,
			"count":3042,
			"type":"VEC2"
		},
		{
			"bufferView":20,
			"componentType":5123,
			"count":11712,
			"type":"SCALAR"
		}
	],
	"bufferViews":[
		{
			"buffer":0,
			"byteLength":42912,
			"byteOffset":0,
			"target":34962
		},
		{
			"buffer":0,
			"byteLength":42912,
			"byteOffset":42912,
			"target":34962
		},
		{
			"buffer":0,
			"byteLength":28608,
			"byteOffset":85824,
			"target":34962
		},
		{
			"buffer":0,
			"byteLength":28608,
			"byteOffset":114432,
			"target":34962
		},
		{
			"buffer":0,
			"byteLength":10632,
			"byteOffset":143040,
			"target":34963
		},
		{
			"buffer":0,
			"byteLength":50424,
			"byteOffset":153672,
			"target":34962
		},
		{
			"buffer":0,
			"byteLength":50424,
			"byteOffset":204096,
			"target":34962
		},
		{
			"buffer":0,
			"byteLength":33616,
			"byteOffset":254520,
			"target":34962
		},
		{
			"buffer":0,
			"byteLength":27828,
			"byteOffset":288136,
			"target":34963
		},
		{
			"buffer":0,
			"byteLength":72,
			"byteOffset":315964,
			"target":34962
		},
		{
			"buffer":0,
			"byteLength":72,
			"byteOffset":316036,
			"target":34962
		},
		{
			"buffer":0,
			"byteLength":48,
			"byteOffset":316108,
			"target":34962
		},
		{
			"buffer":0,
			"byteLength":24,
			"byteOffset":316156,
			"target":34963
		},
		{
			"buffer":0,
			"byteLength":2400,
			"byteOffset":316180,
			"target":34962
		},
		{
			"buffer":0,
			"byteLength":2400,
			"byteOffset":318580,
			"target":34962
		},
		{
			"buffer":0,
			"byteLength":1600,
			"byteOffset":320980,
			"target":34962
		},
		{
			"buffer":0,
			"byteLength":1704,
			"byteOffset":322580,
			"target":34963
		},
		{
			"buffer":0,
			"byteLength":36504,
			"byteOffset":324284,
			"target":34962
		},
		{
			"buffer":0,
			"byteLength":36504,
			"byteOffset":360788,
			"target":34962
		},
		{
			"buffer":0,
			"byteLength":24336,
			"byteOffset":397292,
			"target":34962
		},
		{
			"buffer":0,
			"byteLength":23424,
			"byteOffset":421628,
			"target":34963
		}
	],
	"samplers":[
		{
			"magFilter":9729,
			"minFilter":9987
		}
	],
	"buffers":[
		{
			"byteLength":445052,
			"uri":"tableRM.bin"
		}
	]
}
