{
	"asset":{
		"generator":"Khronos glTF Blender I/O v4.3.47",
		"version":"2.0"
	},
	"extensionsUsed":[
		"KHR_texture_transform"
	],
	"extensionsRequired":[
		"KHR_texture_transform"
	],
	"scene":0,
	"scenes":[
		{
			"name":"Scene",
			"nodes":[
				0
			]
		}
	],
	"nodes":[
		{
			"mesh":0,
			"name":"floor"
		}
	],
	"materials":[
		{
			"doubleSided":true,
			"name":"Wood Floor.001",
			"normalTexture":{
				"extensions":{
					"KHR_texture_transform":{
						"offset":[
							0,
							0.18000000715255737
						],
						"scale":[
							0.8199999928474426,
							0.8199999928474426
						]
					}
				},
				"index":0,
				"texCoord":1
			},
			"pbrMetallicRoughness":{
				"baseColorTexture":{
					"extensions":{
						"KHR_texture_transform":{
							"offset":[
								0,
								0.18000000715255737
							],
							"scale":[
								0.8199999928474426,
								0.8199999928474426
							]
						}
					},
					"index":1,
					"texCoord":1
				},
				"metallicRoughnessTexture":{
					"extensions":{
						"KHR_texture_transform":{
							"offset":[
								0,
								0.18000000715255737
							],
							"scale":[
								0.8199999928474426,
								0.8199999928474426
							]
						}
					},
					"index":2,
					"texCoord":1
				}
			}
		}
	],
	"meshes":[
		{
			"name":"Plane",
			"primitives":[
				{
					"attributes":{
						"POSITION":0,
						"NORMAL":1,
						"TEXCOORD_0":2,
						"TEXCOORD_1":3
					},
					"indices":4,
					"material":0
				}
			]
		}
	],
	"textures":[
		{
			"sampler":0,
			"source":0
		},
		{
			"sampler":0,
			"source":1
		},
		{
			"sampler":0,
			"source":2
		}
	],
	"images":[
		{
			"mimeType":"image/jpeg",
			"name":"woodparquet_77_Normal",
			"uri":"woodparquet_77_Normal.jpg"
		},
		{
			"mimeType":"image/jpeg",
			"name":"woodparquet_77_BaseColor",
			"uri":"woodparquet_77_BaseColor.jpg"
		},
		{
			"mimeType":"image/png",
			"name":"woodparquet_77_Metallic-woodparquet_77_Roughness",
			"uri":"woodparquet_77_Metallic-woodparquet_77_Roughness.png"
		}
	],
	"accessors":[
		{
			"bufferView":0,
			"componentType":5126,
			"count":17519,
			"max":[
				10.000001907348633,
				0,
				10.000001907348633
			],
			"min":[
				-10.000001907348633,
				-0.06400001049041748,
				-10.000001907348633
			],
			"type":"VEC3"
		},
		{
			"bufferView":1,
			"componentType":5126,
			"count":17519,
			"type":"VEC3"
		},
		{
			"bufferView":2,
			"componentType":5126,
			"count":17519,
			"type":"VEC2"
		},
		{
			"bufferView":3,
			"componentType":5126,
			"count":17519,
			"type":"VEC2"
		},
		{
			"bufferView":4,
			"componentType":5123,
			"count":92736,
			"type":"SCALAR"
		}
	],
	"bufferViews":[
		{
			"buffer":0,
			"byteLength":210228,
			"byteOffset":0,
			"target":34962
		},
		{
			"buffer":0,
			"byteLength":210228,
			"byteOffset":210228,
			"target":34962
		},
		{
			"buffer":0,
			"byteLength":140152,
			"byteOffset":420456,
			"target":34962
		},
		{
			"buffer":0,
			"byteLength":140152,
			"byteOffset":560608,
			"target":34962
		},
		{
			"buffer":0,
			"byteLength":185472,
			"byteOffset":700760,
			"target":34963
		}
	],
	"samplers":[
		{
			"magFilter":9729,
			"minFilter":9987
		}
	],
	"buffers":[
		{
			"byteLength":886232,
			"uri":"staticmodels-floor.bin"
		}
	]
}
